<svg width="76" height="76" viewBox="0 0 76 76" fill="none" xmlns="http://www.w3.org/2000/svg">
<path d="M38 0L39.7884 17.5581L44.5986 0.577305L43.311 18.1792L50.9968 2.29168L46.6721 19.4026L57 5.09103L49.7698 21.191L62.4259 8.89031L52.5098 23.4902L67.1097 13.5741L54.809 26.2302L70.909 19L56.5974 29.3279L73.7083 25.0032L57.8208 32.689L75.4227 31.4014L58.4419 36.2116L76 38L58.4419 39.7884L75.4227 44.5986L57.8208 43.311L73.7083 50.9968L56.5974 46.6721L70.909 57L54.809 49.7698L67.1097 62.4259L52.5098 52.5098L62.4259 67.1097L49.7698 54.809L57 70.909L46.6721 56.5974L50.9968 73.7083L43.311 57.8208L44.5986 75.4227L39.7884 58.4419L38 76L36.2116 58.4419L31.4014 75.4227L32.689 57.8208L25.0032 73.7083L29.3279 56.5974L19 70.909L26.2302 54.809L13.5741 67.1097L23.4902 52.5098L8.89031 62.4259L21.191 49.7698L5.09103 57L19.4026 46.6721L2.29168 50.9968L18.1792 43.311L0.577305 44.5986L17.5581 39.7884L0 38L17.5581 36.2116L0.577305 31.4014L18.1792 32.689L2.29168 25.0032L19.4026 29.3279L5.09103 19L21.191 26.2302L8.89031 13.5741L23.4902 23.4902L13.5741 8.89031L26.2302 21.191L19 5.09103L29.3279 19.4026L25.0032 2.29168L32.689 18.1792L31.4014 0.577305L36.2116 17.5581L38 0Z" fill="url(#paint0_radial_273_9024)"/>
<defs>
<radialGradient id="paint0_radial_273_9024" cx="0" cy="0" r="1" gradientUnits="userSpaceOnUse" gradientTransform="translate(37.573 38.427) rotate(97.284) scale(57.2485)">
<stop stop-color="#1B94A7"/>
<stop offset="0.588542" stop-color="white"/>
</radialGradient>
</defs>
</svg>
