<svg width="16" height="14" viewBox="0 0 16 14" fill="none" xmlns="http://www.w3.org/2000/svg">
<path d="M8 0L8.59614 4.37761L11.0615 0.532843L9.69767 4.77685L13.6569 2.05025L10.5407 5.51454L15.391 4.32122L10.997 6.47837L16 7L10.997 7.52163L15.391 9.67878L10.5407 8.48546L13.6569 11.9497L9.69767 9.22315L11.0615 13.4672L8.59614 9.62239L8 14L7.40386 9.62239L4.93853 13.4672L6.30233 9.22315L2.34315 11.9497L5.45925 8.48546L0.608964 9.67878L5.00299 7.52163L0 7L5.00299 6.47837L0.608964 4.32122L5.45925 5.51454L2.34315 2.05025L6.30233 4.77685L4.93853 0.532843L7.40386 4.37761L8 0Z" fill="#373737"/>
</svg>
