<svg width="8" height="14" viewBox="0 0 8 14" fill="none" xmlns="http://www.w3.org/2000/svg">
<path d="M0.293031 13.3644C0.10556 13.1769 0.000244109 12.9226 0.000244097 12.6574C0.000244085 12.3923 0.10556 12.138 0.293031 11.9504L5.24303 7.00044L0.29303 2.05044C0.110872 1.86184 0.0100773 1.60923 0.0123557 1.34704C0.0146342 1.08484 0.119803 0.834028 0.305211 0.648621C0.49062 0.463213 0.741432 0.358045 1.00363 0.355766C1.26583 0.353488 1.51843 0.454282 1.70703 0.63644L7.36403 6.29344C7.5515 6.48097 7.65682 6.73528 7.65682 7.00044C7.65682 7.2656 7.5515 7.51991 7.36403 7.70744L1.70703 13.3644C1.5195 13.5519 1.26519 13.6572 1.00003 13.6572C0.734866 13.6572 0.480558 13.5519 0.293031 13.3644Z" fill="white"/>
</svg>
