<svg width="27" height="22" viewBox="0 0 27 22" fill="none" xmlns="http://www.w3.org/2000/svg">
<path d="M13.6575 6.10352e-05L14.6037 6.76573L18.5165 0.823579L16.3519 7.38276L22.6357 3.16876L17.69 8.52287L25.388 6.67857L18.4142 10.0125L26.3545 10.8187L18.4142 11.6249L25.388 14.9588L17.69 13.1145L22.6357 18.4686L16.3519 14.2546L18.5165 20.8138L14.6037 14.8716L13.6575 21.6373L12.7114 14.8716L8.79859 20.8138L10.9631 14.2546L4.67938 18.4686L9.62504 13.1145L1.92701 14.9588L8.90089 11.6249L0.96051 10.8187L8.90089 10.0125L1.92701 6.67857L9.62504 8.52287L4.67938 3.16876L10.9631 7.38276L8.79859 0.823579L12.7114 6.76573L13.6575 6.10352e-05Z" fill="white"/>
</svg>
