<svg width="8" height="14" viewBox="0 0 8 14" fill="none" xmlns="http://www.w3.org/2000/svg">
<path d="M7.70697 13.3644C7.89444 13.1769 7.99976 12.9226 7.99976 12.6574C7.99976 12.3923 7.89444 12.138 7.70697 11.9504L2.75697 7.00044L7.70697 2.05044C7.88913 1.86184 7.98992 1.60923 7.98764 1.34704C7.98537 1.08484 7.8802 0.834028 7.69479 0.648621C7.50938 0.463213 7.25857 0.358045 6.99637 0.355766C6.73417 0.353488 6.48157 0.454282 6.29297 0.63644L0.635969 6.29344C0.448499 6.48097 0.343183 6.73528 0.343183 7.00044C0.343183 7.2656 0.448499 7.51991 0.635969 7.70744L6.29297 13.3644C6.4805 13.5519 6.73481 13.6572 6.99997 13.6572C7.26513 13.6572 7.51944 13.5519 7.70697 13.3644Z" fill="white"/>
</svg>
